<svg version="1.1" viewBox="0.0 0.0 960.0 720.0" fill="none" stroke="none" stroke-linecap="square" stroke-miterlimit="10" xmlns:xlink="http://www.w3.org/1999/xlink" xmlns="http://www.w3.org/2000/svg"><clipPath id="p.0"><path d="m0 0l960.0 0l0 720.0l-960.0 0l0 -720.0z" clip-rule="nonzero"/></clipPath><g clip-path="url(#p.0)"><path fill="#000000" fill-opacity="0.0" d="m0 0l960.0 0l0 720.0l-960.0 0z" fill-rule="evenodd"/><path fill="#000000" fill-opacity="0.0" d="m21.72441 0l876.28345 0l0 665.7953l-876.28345 0z" fill-rule="evenodd"/><path fill="#000000" fill-opacity="0.0" d="m30.72441 -4.25531l503.90134 0l0 662.2331l-503.90134 0l0 -662.2331z" fill-rule="nonzero"/><path fill="#38761d" d="m391.5994 478.625q-35.5625 25.609375 -71.765625 38.03125q-36.1875 12.421875 -72.687485 12.421875q-28.1875 0 -52.921875 -7.390625q-24.734375 -7.375 -44.828125 -20.953125q-20.078125 -13.578125 -35.125 -32.515625q-15.046875 -18.953125 -23.578125 -42.015625q-8.53125 -23.078125 -10.28125 -49.390625q-1.734375 -26.3125 4.25 -54.390625q5.921875 -27.921875 18.59375 -53.546875q12.671875 -25.640625 30.484375 -48.046875q17.8125 -22.421875 40.15625 -40.734375q22.34375 -18.328125 47.40625 -31.375q25.078125 -13.046875 52.45311 -20.28125q27.375 -7.25 55.375 -7.25q36.78125 0 68.375 12.6875q31.609375 12.6875 61.4375 43.625l-67.9375 83.59375q-20.265625 -26.203125 -38.0 -34.828125q-17.734375 -8.640625 -39.65625 -8.640625q-22.34375 0 -44.03125 8.671875q-21.687485 8.65625 -39.906235 23.578125q-18.21875 14.90625 -31.125 34.8125q-12.90625 19.890625 -17.6875 42.359375q-4.75 22.375 -0.515625 41.578125q4.25 19.203125 15.375 33.34375q11.140625 14.140625 28.328125 22.40625q17.1875 8.265625 39.14061 8.265625q12.734375 0 25.578125 -3.109375q12.859375 -3.109375 20.03125 -6.359375l23.296875 -109.546875l94.84375 0l-35.078125 165.0z" fill-rule="nonzero"/><path fill="#010000" fill-opacity="0.0" d="m534.62573 -4.25531l299.73663 0l0 662.2331l-299.73663 0l0 -662.2331z" fill-rule="nonzero"/><path fill="#b45f06" d="m664.1101 521.0l-97.453125 0l84.09375 -395.65625l284.17188 0l-20.609375 96.96875l-186.71875 0l-11.15625 52.515625l111.984375 0l-20.609375 96.953125l-111.984375 0l-31.71875 149.21875z" fill-rule="nonzero"/><path fill="#000000" fill-opacity="0.0" d="m834.36237 -4.25531l0 0l0 662.2331l0 0l0 -662.2331z" fill-rule="nonzero"/><path fill="#38761d" d="m30.72441 555.6667l503.90134 0l0 48.0l-503.90134 0l0 -48.0z" fill-rule="nonzero"/><path fill="#b45f06" d="m534.62573 555.6667l299.73663 0l0 48.0l-299.73663 0l0 -48.0z" fill-rule="nonzero"/></g></svg>